<?xml version="1.0" standalone="no"?>
<!DOCTYPE svg PUBLIC "-//W3C//DTD SVG 20010904//EN"
 "http://www.w3.org/TR/2001/REC-SVG-20010904/DTD/svg10.dtd">
<svg version="1.0" xmlns="http://www.w3.org/2000/svg"
 width="3200.000000pt" height="3200.000000pt" viewBox="0 0 3200.000000 3200.000000"
 preserveAspectRatio="xMidYMid meet">
<metadata>
Created by potrace 1.11, written by Peter Selinger 2001-2013
</metadata>
<g transform="translate(0.000000,3200.000000) scale(0.100000,-0.100000)"
fill="#000000" stroke="none">
<path d="M16916 31176 c-13 -9 -55 -94 -56 -111 0 -3 -14 -33 -32 -68 -17 -34
-31 -68 -30 -74 2 -7 -2 -13 -8 -13 -5 0 -9 -3 -8 -7 1 -5 -8 -29 -20 -55 -12
-26 -22 -52 -22 -57 0 -6 -4 -11 -10 -11 -5 0 -9 -3 -8 -7 1 -9 -13 -46 -46
-118 -59 -126 -321 -710 -321 -714 -1 -4 -13 -30 -28 -59 -15 -29 -25 -57 -22
-62 3 -4 1 -10 -4 -12 -5 -1 -11 -10 -13 -18 -2 -8 -9 -21 -16 -28 -7 -8 -10
-17 -7 -22 3 -5 0 -10 -5 -12 -6 -2 -12 -13 -13 -26 0 -12 -5 -22 -10 -22 -4
0 -5 -4 -2 -10 3 -5 2 -10 -3 -10 -9 0 -39 -69 -35 -82 2 -4 -2 -8 -8 -8 -5 0
-7 -4 -4 -10 3 -5 2 -10 -3 -10 -5 0 -12 -8 -14 -17 -3 -10 -6 -22 -7 -28 -2
-5 -13 -28 -24 -50 -12 -22 -20 -43 -19 -47 1 -5 -3 -8 -10 -8 -6 0 -9 -3 -5
-6 3 -4 -1 -21 -10 -38 -10 -17 -16 -34 -15 -38 1 -5 -3 -8 -9 -8 -5 0 -8 -4
-4 -9 3 -5 1 -12 -5 -16 -6 -4 -8 -11 -5 -16 4 -5 1 -9 -5 -9 -6 0 -8 -4 -5
-10 3 -5 1 -10 -5 -10 -6 0 -8 -4 -5 -10 3 -5 1 -10 -5 -10 -6 0 -8 -4 -5 -10
3 -5 1 -10 -4 -10 -6 0 -10 -3 -9 -7 3 -16 -15 -63 -24 -63 -5 0 -6 -4 -3 -10
3 -5 1 -10 -6 -10 -7 0 -9 -3 -6 -6 3 -4 1 -16 -5 -28 -7 -11 -13 -28 -14 -36
-2 -8 -8 -16 -14 -18 -5 -2 -8 -7 -5 -12 3 -5 0 -14 -7 -22 -7 -7 -15 -22 -16
-33 -2 -11 -9 -23 -15 -27 -7 -4 -8 -8 -4 -8 5 0 -1 -17 -11 -37 -35 -66 -367
-807 -367 -817 0 -6 -5 -17 -12 -23 -6 -7 -19 -34 -29 -60 -10 -27 -28 -67
-42 -90 -13 -24 -21 -43 -18 -43 3 0 -5 -21 -19 -47 -40 -82 -155 -342 -155
-353 0 -5 -4 -10 -10 -10 -5 0 -9 -3 -8 -7 1 -5 -3 -18 -10 -30 -7 -13 -10
-23 -8 -23 3 0 -6 -20 -19 -44 -14 -25 -25 -52 -25 -60 0 -9 -4 -16 -10 -16
-5 0 -9 -3 -8 -7 1 -5 -6 -26 -16 -48 -10 -22 -28 -62 -40 -90 -13 -27 -32
-70 -43 -95 -12 -25 -31 -70 -44 -100 -13 -30 -26 -57 -31 -60 -4 -3 -9 -15
-11 -25 -2 -11 -15 -45 -30 -75 -14 -30 -38 -82 -53 -115 -56 -128 -110 -247
-134 -300 -68 -147 -262 -582 -263 -590 -1 -5 -4 -12 -7 -15 -10 -8 -83 -178
-80 -186 1 -4 -3 -10 -10 -14 -6 -4 -13 -13 -14 -21 -2 -8 -8 -27 -15 -44 -7
-16 -12 -32 -11 -34 1 -2 -3 -7 -9 -11 -6 -3 -13 -16 -16 -28 -2 -11 -9 -31
-16 -44 -8 -13 -14 -25 -14 -28 0 -3 -6 -15 -13 -26 -6 -12 -8 -24 -5 -28 3
-3 2 -6 -4 -6 -10 0 -26 -36 -24 -52 1 -5 -4 -8 -10 -8 -5 0 -7 -4 -4 -10 3
-5 1 -10 -5 -10 -6 0 -9 -4 -5 -9 3 -5 1 -12 -5 -16 -6 -4 -8 -10 -5 -15 3 -4
-2 -13 -10 -20 -8 -7 -12 -16 -9 -21 3 -5 0 -9 -5 -9 -6 0 -10 -3 -9 -7 4 -14
-26 -83 -35 -83 -4 0 -5 -4 -2 -10 3 -5 1 -10 -4 -10 -6 0 -10 -3 -10 -7 1 -8
0 -12 -6 -30 -2 -5 -6 -18 -10 -30 -4 -13 -12 -23 -18 -23 -6 0 -7 -3 -4 -7 4
-3 3 -11 -1 -17 -5 -6 -16 -32 -26 -58 -10 -27 -21 -48 -25 -48 -4 0 -8 -6 -8
-13 0 -7 -11 -38 -25 -68 -14 -29 -31 -69 -38 -86 -7 -18 -16 -33 -20 -33 -3
0 -7 -6 -7 -13 0 -13 -61 -156 -73 -170 -4 -4 -25 7 -47 25 -21 18 -54 44 -72
58 -17 14 -44 36 -60 50 -45 41 -81 70 -86 70 -2 0 -18 12 -34 28 -16 15 -44
38 -61 52 -17 14 -42 35 -56 48 -13 13 -24 20 -24 16 0 -4 -11 5 -25 20 -13
14 -29 26 -35 26 -5 0 -10 4 -10 9 0 5 -13 17 -29 28 -16 10 -50 37 -77 60
-27 24 -78 67 -114 96 -36 29 -74 60 -85 69 -11 9 -58 47 -105 84 -47 38 -88
73 -92 78 -4 6 -8 7 -8 2 0 -6 -6 -3 -12 6 -14 18 -134 118 -142 118 -2 0 -18
12 -34 28 -16 15 -41 36 -56 47 -15 11 -37 29 -49 40 -13 11 -43 36 -67 55
-66 51 -69 53 -93 75 -13 11 -43 36 -67 55 -66 51 -69 53 -101 80 -16 14 -41
35 -57 47 -207 167 -384 313 -414 341 -33 32 -41 35 -65 26 -36 -12 -43 -48
-40 -223 1 -78 -1 -141 -4 -141 -3 0 -6 -68 -5 -150 1 -83 -1 -150 -4 -150 -4
0 -6 -67 -5 -150 0 -82 -2 -150 -5 -150 -3 0 -6 -69 -7 -152 -3 -373 -4 -452
-8 -459 -6 -8 -20 -542 -20 -752 0 -86 -3 -157 -7 -157 -4 0 -6 -50 -5 -111 3
-117 -5 -137 -40 -108 -9 8 -18 13 -19 12 -2 -1 -9 0 -16 2 -82 30 -162 54
-169 49 -5 -3 -9 0 -9 6 0 7 -7 10 -15 6 -8 -3 -15 -1 -15 5 0 6 -4 8 -9 4 -5
-3 -13 0 -16 6 -4 5 -13 8 -21 5 -8 -3 -14 -2 -14 3 0 5 -15 12 -32 16 -36 8
-45 11 -53 15 -3 1 -8 3 -12 5 -5 1 -16 5 -25 9 -9 4 -22 9 -30 10 -7 1 -23 8
-35 14 -13 7 -23 10 -23 6 0 -3 -7 -1 -15 6 -8 7 -15 9 -15 5 0 -4 -7 -2 -15
5 -8 7 -15 10 -15 7 0 -3 -15 0 -34 8 -18 8 -36 11 -40 8 -3 -4 -6 0 -6 7 0 7
-3 11 -6 8 -3 -4 -34 4 -69 17 -35 12 -66 20 -69 17 -3 -3 -6 0 -6 7 0 7 -6
11 -12 9 -7 -3 -24 1 -37 8 -14 7 -28 11 -33 8 -4 -3 -8 -1 -8 3 0 5 -12 10
-26 11 -15 1 -32 6 -38 11 -10 8 -78 33 -101 37 -14 2 -641 213 -849 285 -92
32 -172 57 -176 54 -5 -3 -10 -1 -12 5 -1 5 -14 11 -28 12 -14 2 -27 6 -30 10
-3 4 -15 9 -25 11 -11 1 -26 6 -32 10 -7 5 -17 5 -23 2 -5 -3 -10 -1 -10 5 0
7 -7 10 -15 6 -8 -3 -15 -2 -15 3 0 8 -35 18 -77 23 -7 1 -13 5 -13 10 0 4 -6
8 -14 8 -8 0 -27 5 -43 12 -32 13 -52 19 -70 20 -7 1 -13 5 -13 10 0 5 -4 7
-9 3 -5 -3 -13 0 -16 6 -4 5 -13 8 -21 5 -8 -3 -14 -1 -14 5 0 6 -7 9 -15 5
-8 -3 -15 -2 -15 3 0 4 -6 8 -12 9 -15 1 -52 10 -55 12 -2 2 -7 4 -13 5 -5 1
-12 4 -15 5 -3 1 -8 3 -12 4 -5 1 -14 5 -20 9 -7 5 -13 6 -13 2 0 -3 -10 0
-22 7 -13 7 -29 11 -35 10 -7 -2 -13 2 -13 9 0 6 -6 9 -14 6 -8 -3 -17 -3 -21
1 -4 4 -10 7 -13 8 -24 3 -62 17 -62 23 0 4 -6 8 -12 9 -33 2 -73 14 -76 23
-2 5 -7 7 -12 4 -5 -3 -21 0 -37 6 -15 7 -37 14 -48 16 -11 2 -21 8 -23 13 -2
5 -10 6 -18 3 -8 -3 -14 0 -14 7 0 6 -4 9 -8 6 -5 -3 -175 51 -378 120 -311
106 -404 137 -444 149 -3 1 -12 4 -20 8 -31 13 -176 60 -190 62 -8 1 -27 7
-41 13 -22 9 -98 32 -119 37 -3 0 -14 6 -25 12 -26 13 -168 58 -177 55 -5 -1
-8 2 -8 8 0 6 -3 9 -7 8 -5 -1 -28 5 -53 12 -25 8 -48 14 -52 16 -5 1 -10 3
-13 4 -3 1 -9 4 -15 5 -5 1 -12 4 -15 5 -3 1 -9 4 -15 5 -5 1 -13 4 -17 5 -5
1 -11 2 -15 1 -5 0 -8 4 -8 10 0 5 -4 8 -9 5 -5 -4 -22 -1 -38 6 -15 6 -31 11
-35 10 -5 -1 -8 3 -8 9 0 6 -7 9 -15 5 -8 -3 -15 -1 -15 5 0 6 -3 8 -7 6 -5
-3 -19 0 -33 6 -14 5 -31 11 -38 13 -8 1 -21 6 -30 10 -9 4 -21 8 -27 9 -24 6
-271 88 -280 93 -5 4 -14 7 -20 7 -5 1 -17 4 -25 8 -19 8 -889 298 -904 301
-6 1 -28 10 -50 19 -21 9 -47 17 -57 17 -10 0 -20 4 -23 9 -5 7 -60 25 -103
33 -5 0 -24 8 -42 16 -36 14 -66 23 -88 24 -7 1 -13 5 -13 10 0 4 -11 8 -24 8
-14 0 -27 4 -31 10 -3 5 -12 7 -20 3 -8 -3 -15 0 -15 6 0 7 -6 11 -12 10 -13
-2 -33 4 -78 24 -14 6 -28 11 -32 13 -5 1 -9 2 -10 3 -2 2 -14 4 -27 7 -14 2
-30 9 -38 15 -7 6 -13 9 -13 5 0 -3 -15 0 -34 8 -19 8 -37 12 -40 8 -3 -3 -6
0 -6 6 0 6 -7 9 -15 6 -8 -4 -15 -2 -15 3 0 5 -12 10 -27 11 -15 1 -29 5 -32
10 -3 4 -13 9 -21 10 -39 9 -47 12 -79 21 -35 11 -57 4 -80 -23 -16 -19 2 -91
25 -100 8 -3 13 -10 10 -15 -4 -5 1 -16 9 -25 9 -8 15 -18 14 -21 -1 -3 13
-33 30 -65 18 -33 32 -63 32 -67 0 -5 7 -15 14 -23 7 -8 39 -67 71 -130 31
-63 60 -117 63 -120 3 -3 31 -54 61 -115 30 -60 63 -121 72 -134 10 -13 16
-27 13 -31 -3 -4 2 -11 11 -14 9 -4 14 -13 10 -21 -3 -8 -1 -15 4 -15 5 0 12
-10 16 -22 4 -13 10 -25 14 -28 5 -3 10 -14 12 -25 1 -11 5 -22 8 -25 10 -9
82 -135 84 -146 1 -6 9 -22 17 -35 17 -26 30 -57 26 -63 -1 -2 5 -12 14 -22 9
-11 43 -71 75 -134 33 -63 62 -117 65 -120 4 -3 15 -23 26 -45 64 -132 237
-458 250 -470 8 -8 12 -15 9 -15 -4 0 15 -41 41 -91 27 -51 65 -124 85 -163
20 -39 40 -76 45 -81 4 -6 9 -17 11 -25 2 -8 8 -17 13 -18 5 -2 7 -8 4 -12 -3
-5 3 -18 14 -29 11 -11 17 -22 14 -25 -4 -3 -1 -6 5 -6 7 0 11 -3 10 -7 -4
-12 26 -73 35 -73 5 0 5 -4 2 -10 -3 -5 -1 -10 4 -10 6 0 10 -3 9 -7 -3 -10
38 -88 64 -125 11 -16 16 -28 13 -28 -4 0 1 -7 9 -16 9 -8 14 -20 11 -25 -4
-5 -1 -9 5 -9 6 0 9 -4 6 -9 -3 -5 1 -14 9 -21 8 -7 13 -16 10 -20 -3 -4 2
-13 10 -20 8 -7 15 -18 15 -25 0 -7 9 -24 20 -38 11 -14 20 -32 20 -40 0 -9 4
-17 9 -19 5 -1 11 -10 13 -18 2 -8 5 -17 8 -20 15 -15 59 -108 53 -114 -3 -3
-2 -6 4 -6 11 0 108 -180 96 -180 -4 0 -3 -4 3 -8 7 -4 62 -104 124 -222 62
-118 131 -249 153 -290 22 -41 54 -102 70 -135 16 -33 35 -63 41 -67 6 -4 7
-8 3 -8 -7 0 20 -58 33 -70 3 -3 19 -32 35 -65 17 -33 34 -63 38 -66 5 -3 9
-10 9 -15 0 -15 40 -89 52 -96 6 -5 7 -8 1 -8 -6 0 -6 -3 0 -8 9 -6 36 -56 40
-72 0 -3 7 -16 15 -30 26 -44 53 -105 52 -112 -1 -5 2 -8 7 -8 5 0 14 -13 21
-30 7 -16 17 -30 23 -30 6 0 8 -3 5 -6 -3 -3 14 -42 37 -87 24 -45 65 -125 92
-177 26 -52 51 -96 56 -98 4 -2 7 -11 7 -21 0 -9 6 -23 13 -29 12 -13 88 -155
193 -362 32 -63 61 -117 64 -120 3 -3 30 -52 59 -110 30 -58 57 -109 61 -115
9 -12 183 -348 222 -427 15 -32 32 -58 38 -58 5 0 9 -3 7 -8 -3 -11 47 -112
56 -112 4 0 5 -4 2 -10 -3 -5 -1 -10 5 -10 6 0 8 -4 5 -10 -3 -5 -1 -10 6 -10
7 0 9 -3 6 -7 -7 -6 29 -73 46 -84 5 -3 9 -9 9 -12 0 -19 12 -47 20 -47 5 0 6
-4 3 -10 -3 -5 -1 -10 5 -10 6 0 9 -4 5 -9 -3 -5 1 -15 8 -23 24 -24 27 -47 8
-53 -15 -5 -295 -59 -356 -69 -11 -2 -20 -4 -20 -6 0 -2 -48 -9 -75 -11 -8 0
-22 -3 -30 -6 -15 -6 -51 -12 -80 -14 -8 0 -22 -3 -30 -6 -15 -6 -48 -12 -82
-16 -10 0 -18 -4 -18 -7 0 -3 -12 -5 -27 -6 -28 -1 -68 -8 -113 -19 -23 -6
-51 -11 -110 -19 -14 -2 -25 -4 -25 -5 0 -4 -38 -11 -75 -16 -19 -2 -35 -4
-35 -6 0 -1 -9 -3 -20 -5 -11 -1 -31 -5 -45 -9 -14 -3 -36 -8 -50 -9 -14 -2
-34 -6 -45 -9 -22 -6 -89 -19 -120 -22 -11 -1 -29 -4 -40 -8 -11 -3 -31 -8
-45 -11 -105 -20 -139 -26 -170 -31 -59 -9 -674 -126 -700 -134 -13 -3 -30
-17 -36 -29 -10 -21 -7 -28 27 -63 21 -21 43 -39 48 -39 5 0 16 -8 23 -18 7
-10 20 -23 29 -28 9 -5 34 -24 55 -41 22 -18 181 -148 354 -288 173 -141 334
-273 358 -293 24 -20 48 -39 53 -41 6 -2 23 -15 38 -30 39 -36 71 -62 71 -56
0 3 13 -9 30 -27 16 -17 30 -28 30 -24 0 6 10 -2 76 -61 14 -13 29 -23 33 -23
5 0 17 -11 27 -25 10 -14 23 -25 29 -25 6 0 18 -8 27 -17 8 -10 31 -29 49 -43
19 -14 44 -35 57 -47 13 -13 27 -23 32 -23 5 0 18 -11 29 -26 11 -14 22 -24
24 -22 3 2 21 -12 41 -29 19 -18 40 -33 46 -33 6 0 8 -4 5 -10 -3 -5 -1 -10 6
-10 10 0 77 -53 143 -112 11 -10 25 -18 32 -18 6 0 14 -7 18 -15 3 -8 17 -20
31 -27 14 -6 25 -16 25 -22 0 -6 12 -19 28 -28 56 -35 67 -43 77 -55 5 -6 29
-27 52 -46 l41 -34 -56 -34 c-32 -19 -61 -37 -67 -42 -5 -4 -31 -21 -57 -37
-27 -17 -69 -43 -95 -60 -27 -16 -53 -34 -60 -40 -7 -5 -16 -10 -21 -10 -5 0
-21 -11 -36 -25 -14 -13 -26 -22 -26 -19 0 3 -20 -9 -44 -26 -25 -16 -48 -30
-53 -30 -7 0 -29 -16 -80 -60 -7 -6 -13 -8 -13 -5 0 5 -51 -24 -60 -36 -3 -3
-24 -16 -47 -29 -24 -13 -43 -28 -43 -32 0 -5 -4 -6 -10 -3 -5 3 -10 2 -10 -2
0 -5 -20 -19 -45 -33 -25 -14 -45 -28 -45 -31 0 -4 -11 -10 -25 -13 -14 -4
-25 -11 -25 -16 0 -6 -6 -10 -14 -10 -7 0 -19 -7 -26 -15 -7 -8 -16 -13 -20
-10 -4 3 -11 -2 -14 -11 -4 -9 -9 -14 -12 -11 -4 3 -12 1 -19 -6 -21 -20 -53
-40 -60 -38 -4 1 -12 -5 -18 -13 -7 -8 -23 -21 -37 -28 -14 -8 -50 -30 -80
-49 -75 -49 -159 -103 -400 -254 -113 -71 -206 -133 -208 -137 -2 -5 -8 -8
-14 -8 -12 0 -202 -122 -206 -132 -2 -5 -8 -8 -12 -8 -5 0 -29 -13 -53 -30
-25 -16 -50 -30 -56 -30 -6 0 -11 -4 -11 -10 0 -5 -7 -10 -15 -10 -8 0 -15 -4
-15 -8 0 -5 -12 -15 -27 -23 -16 -7 -49 -28 -75 -46 -26 -18 -50 -33 -53 -33
-3 0 -28 -16 -55 -35 -28 -19 -50 -33 -50 -30 0 3 -11 -5 -24 -16 -13 -12 -28
-21 -33 -21 -4 0 -24 -13 -44 -29 -20 -16 -41 -29 -47 -29 -5 0 -15 -7 -22
-15 -7 -9 -15 -13 -17 -11 -3 3 -16 -5 -29 -17 -13 -12 -41 -31 -61 -42 -21
-11 -42 -24 -48 -28 -41 -32 -175 -114 -179 -109 -3 3 -6 -1 -6 -8 0 -7 -3
-11 -6 -7 -3 3 -15 -3 -26 -13 -11 -10 -49 -36 -84 -56 -35 -21 -64 -41 -64
-45 0 -4 -11 -10 -25 -13 -14 -4 -25 -11 -25 -16 0 -6 -7 -10 -15 -10 -8 0
-15 -4 -15 -10 0 -5 -3 -9 -8 -8 -9 3 -72 -34 -72 -43 0 -4 -11 -10 -25 -13
-14 -4 -25 -11 -25 -16 0 -6 -7 -10 -15 -10 -8 0 -15 -4 -15 -10 0 -5 -7 -10
-15 -10 -8 0 -15 -4 -15 -9 0 -5 -8 -11 -17 -15 -18 -5 -53 -26 -63 -36 -3 -3
-13 -9 -22 -15 -74 -43 -394 -250 -396 -257 -2 -4 -8 -8 -13 -8 -8 0 -93 -53
-247 -152 -15 -10 -37 -23 -49 -29 -13 -7 -23 -16 -23 -21 0 -5 -4 -7 -9 -4
-5 3 -20 -5 -34 -18 -14 -13 -28 -21 -31 -19 -3 3 -8 -2 -12 -11 -3 -9 -10
-14 -14 -11 -5 3 -15 -2 -23 -10 -9 -8 -20 -15 -26 -15 -6 0 -11 -4 -11 -10 0
-5 -7 -10 -15 -10 -8 0 -15 -5 -15 -12 0 -6 -3 -9 -6 -5 -4 3 -21 -5 -39 -18
-17 -14 -37 -25 -43 -25 -7 0 -12 -4 -12 -10 0 -5 -6 -10 -14 -10 -8 0 -17 -7
-20 -16 -3 -8 -10 -12 -16 -9 -6 3 -13 0 -16 -8 -3 -9 -15 -18 -27 -21 -13 -3
-31 -13 -42 -23 -11 -10 -37 -27 -57 -38 -21 -11 -38 -23 -38 -27 0 -5 -7 -8
-15 -8 -8 0 -15 -5 -15 -11 0 -5 -4 -7 -10 -4 -5 3 -10 1 -10 -4 0 -6 -7 -11
-15 -11 -8 0 -15 -4 -15 -10 0 -5 -4 -10 -9 -10 -5 0 -37 -18 -70 -40 -33 -22
-64 -40 -70 -40 -5 0 -11 -4 -13 -9 -1 -5 -31 -26 -65 -47 -262 -163 -649
-410 -651 -416 -2 -4 -8 -8 -12 -8 -5 0 -28 -13 -52 -28 -24 -16 -65 -43 -93
-60 -27 -17 -55 -36 -62 -42 -7 -5 -17 -10 -23 -10 -5 0 -10 -4 -10 -10 0 -5
-6 -10 -14 -10 -8 0 -21 -6 -28 -13 -16 -15 -96 -67 -103 -67 -2 0 -14 -8 -25
-17 -11 -10 -23 -16 -27 -15 -3 2 -9 0 -12 -5 -3 -5 -28 -23 -56 -41 -27 -18
-57 -37 -65 -42 -8 -6 -40 -26 -70 -45 -30 -19 -60 -39 -67 -45 -7 -5 -15 -10
-18 -10 -3 0 -38 -21 -78 -47 -40 -27 -85 -54 -100 -62 -15 -8 -27 -18 -27
-21 0 -4 -15 -14 -32 -21 -49 -19 -59 -38 -42 -72 8 -15 19 -25 24 -22 5 3 12
0 15 -6 4 -5 14 -8 22 -5 8 3 20 3 26 -1 7 -4 19 -9 27 -11 23 -4 94 -14 108
-15 6 0 12 -4 12 -8 0 -5 6 -6 14 -3 8 3 17 1 20 -5 4 -6 13 -8 21 -5 8 3 20
2 27 -2 11 -7 50 -15 86 -17 6 0 12 -3 12 -7 0 -3 8 -6 18 -6 27 -1 137 -20
137 -24 0 -1 9 -3 20 -5 11 -2 38 -6 60 -10 22 -4 47 -9 55 -12 8 -3 24 -7 35
-8 11 -2 172 -35 358 -75 185 -39 341 -69 346 -66 5 4 11 2 13 -4 1 -5 21 -11
43 -13 22 -1 42 -5 45 -9 4 -4 24 -9 45 -12 22 -2 48 -7 57 -11 9 -4 22 -4 28
0 5 3 10 1 10 -6 0 -7 10 -9 25 -7 14 3 25 1 25 -4 0 -6 7 -7 16 -4 9 4 22 2
28 -3 6 -5 27 -11 46 -14 63 -10 134 -24 138 -27 1 -2 11 -4 22 -5 11 -1 21
-4 23 -5 1 -1 13 -4 27 -6 47 -6 95 -15 110 -21 8 -3 24 -7 35 -9 11 -2 36 -6
55 -9 19 -3 41 -6 48 -7 6 -1 12 -4 12 -8 0 -4 10 -6 22 -5 13 1 28 -1 33 -5
6 -4 17 -7 25 -8 17 0 105 -17 120 -22 3 -1 13 -2 23 -1 9 1 17 -1 17 -6 0 -4
10 -9 23 -10 12 0 33 -3 47 -6 14 -3 43 -8 65 -11 22 -4 47 -10 55 -13 8 -3
26 -7 40 -9 14 -2 173 -35 355 -74 181 -39 335 -68 342 -66 7 3 13 1 13 -3 0
-5 19 -12 43 -16 23 -4 53 -10 67 -13 14 -3 35 -6 48 -6 12 -1 22 -5 22 -10 0
-4 11 -6 25 -4 14 3 25 1 25 -5 0 -5 11 -7 25 -5 14 3 25 1 25 -5 0 -5 9 -7
20 -4 11 3 20 1 20 -5 0 -6 11 -8 25 -6 14 3 25 2 25 -3 0 -4 8 -6 18 -4 9 1
22 0 27 -4 6 -3 21 -7 35 -7 14 -1 26 -3 28 -4 1 -1 5 -3 10 -4 4 -1 12 -4 18
-8 6 -4 21 -6 33 -3 11 2 21 1 21 -4 0 -4 10 -8 23 -8 30 -2 55 -8 63 -15 3
-4 17 -4 30 -2 13 2 24 1 24 -4 0 -4 10 -9 23 -10 29 -2 72 -9 72 -12 0 -1 11
-3 25 -5 14 -2 39 -7 55 -11 17 -3 38 -6 47 -6 10 0 20 -4 23 -9 4 -5 11 -7
16 -4 5 4 15 3 21 -1 7 -5 31 -10 53 -12 22 -2 42 -7 45 -10 3 -4 14 -8 25 -9
56 -7 171 -30 530 -107 143 -30 271 -57 285 -60 14 -2 36 -7 50 -10 14 -3 36
-8 50 -11 14 -3 45 -9 70 -14 25 -5 47 -7 49 -5 2 2 9 0 16 -6 6 -5 27 -12 46
-14 19 -3 50 -8 69 -12 19 -3 40 -7 45 -8 6 -1 15 -4 20 -7 6 -4 20 -5 33 -4
12 1 22 -2 22 -6 0 -4 11 -6 25 -4 14 1 25 -1 25 -6 0 -4 8 -8 18 -8 27 -1 65
-7 82 -14 8 -4 33 -9 55 -11 22 -3 40 -5 40 -7 0 -1 9 -3 20 -5 11 -1 34 -6
50 -9 17 -4 37 -8 45 -10 8 -2 15 -4 15 -5 0 -3 51 -10 73 -10 12 0 22 -4 22
-8 0 -4 19 -8 42 -9 23 -2 44 -6 47 -10 3 -5 15 -8 26 -7 11 0 34 -4 50 -9 17
-5 37 -9 45 -9 8 0 22 -2 30 -5 8 -3 31 -8 50 -10 19 -2 39 -8 45 -13 7 -6 15
-7 18 -4 3 4 14 3 24 -1 10 -4 25 -9 33 -10 35 -6 100 -19 368 -76 155 -32
295 -61 310 -63 15 -2 34 -6 42 -9 8 -3 83 -19 165 -36 83 -17 164 -33 180
-37 17 -3 39 -7 50 -9 11 -1 38 -7 60 -13 22 -6 54 -13 70 -16 17 -3 44 -8 60
-12 17 -3 39 -8 50 -9 11 -2 20 -4 20 -5 0 -1 9 -3 20 -5 113 -21 170 -33 170
-35 0 -3 58 -11 83 -12 12 0 22 -5 22 -10 0 -6 6 -8 14 -5 22 9 33 -14 29 -63
-1 -25 -5 -92 -7 -150 -2 -58 -4 -105 -5 -105 -1 0 -4 -76 -6 -169 -2 -93 -9
-271 -15 -395 -6 -124 -12 -304 -15 -399 -2 -95 -6 -176 -9 -180 -2 -4 -4 -50
-5 -102 0 -52 -3 -156 -6 -230 -3 -74 -7 -184 -9 -245 -2 -60 -5 -110 -6 -110
-1 0 -3 -52 -5 -115 -6 -226 -15 -458 -25 -675 -6 -121 -13 -293 -15 -383 -3
-90 -6 -166 -9 -170 -2 -4 -3 -55 -2 -115 0 -59 -2 -107 -5 -107 -3 0 -6 -48
-7 -107 -1 -60 -4 -162 -7 -228 -3 -66 -6 -166 -7 -222 -1 -57 -4 -103 -7
-103 -3 0 -6 -52 -5 -115 1 -63 -2 -115 -5 -115 -3 0 -5 -24 -3 -52 1 -29 -4
-197 -12 -373 -8 -176 -14 -347 -13 -381 0 -33 -3 -65 -6 -71 -4 -6 -7 -53 -7
-104 -1 -125 -8 -334 -10 -334 -2 0 -4 -49 -6 -110 -2 -60 -6 -162 -9 -225 -2
-63 -6 -160 -8 -215 -2 -55 -5 -102 -6 -105 -1 -3 -3 -61 -5 -130 -1 -69 -6
-195 -10 -280 -9 -228 -21 -510 -32 -795 -3 -71 -7 -182 -10 -245 -2 -63 -6
-162 -8 -220 -2 -58 -4 -105 -6 -105 -1 0 -3 -49 -5 -110 -2 -60 -5 -159 -7
-220 -19 -527 -19 -573 -9 -579 18 -11 71 -15 71 -5 0 5 3 8 8 7 7 -3 24 9 65
47 12 11 25 20 29 20 3 0 15 10 26 23 11 12 23 22 28 22 5 0 16 9 24 20 8 11
19 20 25 20 6 0 16 9 23 21 7 12 16 19 18 16 3 -3 18 8 33 24 16 16 32 29 37
29 5 0 15 9 22 21 7 12 16 18 19 15 3 -3 15 6 25 20 11 14 22 23 25 20 3 -3
15 5 27 17 42 44 123 106 130 100 3 -3 6 -1 6 5 0 6 78 74 174 151 95 77 180
146 187 153 8 7 31 26 52 41 21 16 45 36 55 46 9 9 35 30 57 46 22 16 50 39
61 50 12 11 37 31 55 45 18 14 51 42 73 62 23 21 46 38 52 38 6 0 20 11 30 25
10 14 23 25 29 25 6 0 16 9 23 20 7 11 18 20 25 20 7 0 18 9 25 20 7 11 16 20
21 20 9 0 50 34 119 98 19 17 38 32 41 32 4 0 27 18 51 40 25 22 51 40 58 40
6 0 12 6 12 14 0 8 6 16 13 19 11 4 306 242 317 256 3 3 21 18 40 32 19 15 47
38 63 52 15 14 27 24 27 21 0 -3 13 7 30 23 16 15 41 37 56 48 14 11 37 30 49
43 13 12 27 22 31 22 4 0 17 12 30 28 13 15 24 23 24 19 0 -4 15 6 33 23 44
42 24 26 377 315 173 141 331 272 350 289 19 18 42 36 51 42 17 9 87 68 140
116 16 16 34 28 39 28 5 0 14 9 20 20 6 11 16 20 23 20 7 0 21 11 31 25 10 14
23 25 27 25 9 0 29 16 92 74 18 15 43 35 57 45 14 9 33 26 43 38 10 12 26 25
37 28 10 3 22 15 25 26 4 10 10 17 14 14 5 -2 22 8 38 23 16 15 40 36 54 47
13 11 61 51 106 88 45 38 83 68 85 67 2 -1 26 20 55 48 28 27 54 48 56 46 3
-3 16 9 30 25 13 16 27 28 30 25 2 -3 14 6 25 20 11 15 23 26 27 26 7 0 38 25
125 103 19 18 38 32 42 32 4 0 15 8 25 17 22 22 84 77 112 100 12 10 21 15 21
11 0 -3 10 5 23 18 13 13 40 38 60 54 98 82 123 102 156 131 20 17 160 131
311 254 151 123 288 235 303 249 16 14 37 34 48 44 10 9 21 17 24 17 6 0 51
38 87 73 15 15 28 25 28 21 0 -4 13 6 29 22 17 16 42 38 56 49 15 11 40 32 56
48 16 15 33 27 37 27 4 0 15 8 24 18 24 26 65 62 71 62 2 0 24 18 48 40 50 46
99 75 99 57 0 -12 40 -99 49 -107 3 -3 22 -39 41 -80 19 -41 43 -83 52 -93 10
-10 18 -26 18 -37 0 -10 4 -21 8 -24 5 -3 32 -53 62 -113 29 -59 56 -110 60
-113 4 -3 32 -54 62 -115 169 -334 242 -471 256 -483 9 -6 13 -12 9 -12 -9 0
72 -163 85 -171 5 -3 8 -8 6 -10 -5 -7 34 -89 44 -89 4 0 8 -7 8 -15 0 -8 5
-15 12 -15 6 0 8 -3 5 -6 -7 -7 42 -107 56 -112 4 -2 5 -7 2 -12 -3 -5 1 -14
8 -22 7 -7 15 -17 16 -23 9 -31 45 -95 53 -95 5 0 6 -4 3 -10 -3 -5 -1 -10 4
-10 6 0 10 -3 9 -8 -1 -4 4 -18 12 -32 8 -14 15 -31 16 -38 1 -8 10 -22 20
-33 9 -10 13 -19 8 -19 -5 0 -4 -4 1 -8 6 -4 21 -29 35 -57 30 -61 69 -80 98
-49 14 16 43 67 47 84 0 3 9 21 20 40 11 19 18 38 17 43 -1 4 3 7 9 7 5 0 8 4
5 9 -3 5 1 14 9 21 8 7 12 16 9 21 -3 5 -1 9 5 9 6 0 13 11 17 25 3 14 10 25
16 25 5 0 6 5 3 10 -3 6 -1 10 5 10 6 0 9 4 5 9 -3 5 1 16 9 24 8 8 12 17 9
21 -4 3 -1 6 6 6 7 0 9 5 6 10 -3 6 -1 10 4 10 6 0 10 3 9 8 -2 11 31 80 42
87 6 4 8 10 5 15 -3 4 2 13 10 20 8 7 15 19 15 26 0 8 5 14 10 14 6 0 9 3 8 8
-4 12 24 72 34 72 5 0 7 4 3 9 -3 5 2 17 11 25 8 9 13 16 9 16 -3 0 16 42 43
93 130 244 442 857 436 857 -3 0 0 6 7 13 9 9 78 -54 314 -288 167 -165 340
-334 384 -375 44 -41 216 -208 381 -370 679 -668 884 -869 960 -940 44 -41
224 -217 400 -390 175 -173 322 -316 325 -317 4 0 159 -152 345 -337 187 -185
342 -336 345 -336 4 0 133 -126 288 -280 155 -154 312 -308 349 -342 36 -35
218 -211 402 -393 185 -181 338 -330 340 -330 3 0 151 -145 330 -322 274 -272
329 -323 353 -323 33 1 62 20 56 38 -3 6 -1 12 5 12 5 0 9 7 9 15 0 8 -3 15
-7 15 -3 0 -7 102 -9 227 -1 126 -6 372 -11 548 -14 500 -20 722 -23 960 -1
121 -5 225 -8 230 -3 6 -6 100 -7 211 0 110 -3 245 -6 300 -3 54 -8 252 -12
439 -3 187 -7 385 -9 440 -2 55 -6 208 -8 340 -3 132 -6 240 -7 240 -1 0 -4
101 -6 225 -1 124 -5 261 -8 305 -3 44 -8 215 -11 380 -4 165 -8 365 -10 445
-2 80 -5 250 -7 377 -2 128 -5 233 -8 233 -3 0 -5 108 -5 241 0 132 -3 243 -6
245 -3 2 -6 70 -7 151 -3 338 -14 829 -19 843 -3 8 -6 121 -8 250 -1 129 -3
235 -5 235 -1 0 -3 100 -4 222 l-2 222 25 -5 c14 -3 33 -8 41 -11 52 -18 270
-70 270 -65 0 4 4 2 8 -3 6 -9 129 -45 172 -50 8 -1 22 -5 30 -8 17 -7 111
-34 123 -36 21 -3 65 -14 87 -22 14 -4 36 -10 50 -13 14 -2 38 -9 53 -15 15
-6 31 -10 35 -10 4 1 9 0 12 -1 3 -1 13 -3 23 -6 9 -2 25 -6 35 -8 9 -3 18 -5
20 -6 1 -2 7 -4 12 -5 6 -1 13 -4 18 -5 4 -1 11 -2 16 -1 5 1 26 -5 47 -13 22
-9 39 -13 39 -10 0 4 6 1 13 -5 8 -6 17 -8 20 -5 3 3 12 2 19 -2 14 -9 17 -10
63 -19 17 -3 37 -8 45 -12 19 -8 41 -14 60 -17 9 -1 21 -5 28 -10 6 -4 12 -5
12 -2 0 5 87 -18 120 -31 8 -3 18 -6 22 -5 4 1 20 -3 35 -9 15 -7 37 -13 48
-15 11 -1 45 -9 75 -18 30 -8 141 -37 245 -65 396 -104 531 -141 548 -152 26
-14 70 -3 86 23 11 17 10 26 -5 54 -10 19 -22 34 -27 34 -4 0 -5 5 -2 10 4 6
1 17 -5 25 -7 8 -9 15 -5 15 4 0 2 7 -5 15 -7 8 -9 15 -5 15 4 0 2 6 -4 13 -6
8 -12 22 -14 33 -2 10 -7 28 -11 39 -5 11 -10 27 -14 35 -3 8 -4 21 -3 28 1 6
-3 12 -10 12 -6 0 -9 6 -6 14 3 8 3 17 -1 21 -4 4 -7 10 -8 13 -1 7 -5 19 -20
57 -4 11 -9 25 -9 30 -1 6 -5 19 -9 30 -8 22 -13 36 -15 48 0 4 -10 23 -21 44
-10 20 -17 40 -13 46 3 5 1 12 -5 16 -5 3 -12 17 -13 31 -2 14 -7 27 -11 30
-4 3 -9 15 -11 25 -2 11 -7 29 -11 40 -5 11 -14 37 -22 58 -8 21 -12 42 -9 47
3 4 1 10 -3 12 -5 1 -64 167 -132 368 -68 201 -128 371 -133 378 -5 6 -7 12
-3 12 3 0 -5 29 -18 65 -13 36 -21 65 -17 65 17 0 411 41 446 47 22 3 55 5 73
4 17 -1 32 2 32 6 0 4 21 8 48 9 52 1 167 11 167 14 0 1 23 3 50 5 28 2 51 4
53 5 2 2 53 8 132 13 30 3 55 5 55 7 0 1 23 4 50 6 28 2 70 6 95 9 123 14 159
17 208 18 28 1 52 5 52 10 0 4 21 6 48 6 26 -1 54 1 62 4 8 3 44 8 80 11 36 3
108 10 160 15 52 6 120 13 150 16 30 2 161 16 290 29 129 14 265 28 301 31 36
4 79 8 95 11 16 2 52 6 79 9 84 8 148 14 195 19 85 10 155 17 200 20 25 2 45
5 45 6 0 1 23 4 50 6 88 6 150 12 150 15 0 1 20 3 45 5 25 2 65 6 90 9 25 3
65 7 90 9 25 2 63 6 85 10 22 3 69 8 105 12 36 3 232 24 435 45 204 21 402 41
440 44 39 3 84 7 100 10 17 3 50 7 75 9 108 11 168 17 210 21 25 3 65 7 90 9
25 2 45 4 45 6 0 1 23 3 50 5 28 1 50 4 50 5 0 2 20 4 45 6 25 1 64 5 87 9 24
3 69 8 100 11 57 5 111 10 208 20 28 2 219 23 425 45 206 22 382 40 390 41 17
0 176 17 230 24 19 3 54 5 78 6 23 0 42 4 42 7 0 3 21 7 48 8 172 6 196 13
205 59 4 20 -6 33 -52 74 -31 27 -59 50 -63 50 -4 0 -20 12 -35 26 -55 50 -60
54 -69 54 -4 0 -19 12 -31 27 -13 14 -23 23 -23 19 0 -4 -11 3 -25 16 -64 59
-75 68 -75 62 0 -4 -8 3 -19 14 -10 12 -22 22 -27 22 -5 0 -16 9 -24 20 -8 11
-20 20 -27 20 -7 0 -18 9 -25 20 -7 11 -17 20 -22 20 -5 0 -16 7 -25 15 -9 8
-52 42 -96 76 -44 34 -87 69 -95 78 -9 9 -23 21 -33 26 -9 6 -134 104 -279
219 -145 115 -278 220 -297 235 -19 14 -40 32 -47 39 -7 6 -15 12 -19 12 -3 0
-17 10 -30 23 -37 34 -59 52 -65 52 -3 0 -20 15 -39 33 -19 17 -38 32 -42 32
-5 0 -17 8 -27 17 -30 29 -72 63 -77 63 -6 0 -48 35 -81 68 -13 13 -24 20 -24
18 0 -7 -31 18 -74 59 -17 16 -32 28 -34 26 -2 -1 -16 8 -30 21 -15 12 -53 43
-85 67 -31 24 -57 47 -57 52 0 5 -5 9 -11 9 -13 0 -169 122 -169 133 0 4 -5 7
-11 7 -6 0 -28 14 -48 30 -20 17 -40 34 -46 38 -5 4 -39 31 -75 59 -36 29 -75
61 -88 70 -13 10 -38 30 -55 45 -18 15 -35 28 -39 28 -4 0 -18 11 -32 25 -14
14 -28 25 -31 25 -4 0 -12 6 -19 13 -7 6 -28 23 -46 37 -18 14 -40 32 -50 40
-10 8 -32 26 -50 40 -18 14 -158 124 -310 245 -152 121 -289 229 -304 240 -15
11 -46 37 -69 57 -23 20 -44 35 -48 32 -4 -2 -9 3 -12 11 -4 8 -25 27 -49 42
-24 15 -50 36 -59 45 -9 10 -20 18 -24 18 -4 0 -16 10 -26 22 -11 11 -19 18
-19 14 0 -4 -11 5 -25 20 -14 15 -25 24 -25 20 0 -4 -11 3 -24 16 -13 13 -33
30 -46 38 -12 8 -35 27 -50 42 -15 15 -30 25 -33 22 -3 -3 -13 6 -22 20 -10
14 -21 24 -25 21 -4 -2 -16 6 -27 18 -11 12 -30 29 -43 37 -25 17 -73 56 -101
83 -11 9 -19 15 -19 12 0 -5 -147 111 -304 238 -21 18 -46 36 -55 41 -9 5 -20
15 -24 23 -4 7 -15 13 -22 13 -8 0 -15 4 -15 9 0 7 -68 62 -156 126 -15 11
-44 35 -63 52 -20 18 -39 33 -42 33 -3 0 -17 10 -31 23 -13 12 -37 31 -52 42
-15 11 -36 27 -45 35 -10 8 -33 26 -51 40 -19 14 -44 34 -56 45 -12 11 -35 29
-50 40 -15 11 -107 83 -203 159 -97 77 -206 164 -243 193 -37 30 -70 52 -73
51 -2 -2 -12 7 -20 20 -9 12 -21 20 -26 17 -5 -4 -9 -2 -9 3 0 5 -34 36 -76
68 -42 33 -85 68 -95 78 -11 11 -19 16 -19 11 0 -4 -11 5 -25 21 -14 16 -25
25 -25 21 0 -4 -11 2 -24 15 -13 13 -36 32 -51 43 -14 11 -34 28 -43 38 -9 9
-20 17 -25 17 -7 0 -17 8 -82 66 -13 12 -26 19 -29 16 -13 -12 -4 14 25 77 80
171 174 384 172 390 -1 3 5 13 13 23 9 9 17 22 18 30 1 7 7 22 13 33 6 11 11
23 12 28 0 4 12 30 26 57 14 27 25 51 24 52 -2 4 35 87 68 153 14 28 27 59 29
69 2 11 9 23 16 28 7 4 9 8 5 8 -5 0 2 17 15 38 12 20 22 39 20 42 -4 10 10
40 19 40 6 0 8 4 5 8 -3 5 11 42 31 83 20 41 38 83 40 94 2 11 8 22 13 23 6 2
10 9 10 16 0 7 14 41 32 77 17 35 32 66 33 69 5 25 31 80 37 80 4 0 7 3 6 8
-1 8 13 45 46 117 86 184 326 723 328 735 2 8 6 17 10 20 10 8 59 120 52 120
-3 0 2 7 10 16 9 8 14 19 11 24 -3 5 -1 10 4 12 5 1 11 12 13 23 1 11 9 26 16
33 7 8 10 18 7 23 -4 5 -2 9 2 9 8 0 35 62 33 75 0 3 6 13 15 21 8 9 13 19 10
24 -3 4 2 13 10 20 8 7 13 16 10 20 -3 5 -1 11 5 15 5 3 10 15 10 26 0 10 4
19 9 19 8 0 21 29 25 55 1 6 11 26 21 45 11 19 20 38 21 43 1 4 3 9 4 12 3 6
5 12 15 43 4 12 11 22 16 22 5 0 9 9 9 20 0 11 5 20 10 20 6 0 10 6 8 13 -3
19 12 57 23 57 6 0 8 4 4 9 -3 5 1 15 8 23 8 7 12 19 9 26 -2 6 1 12 8 12 6 0
9 4 5 9 -3 5 2 17 11 25 8 9 13 16 9 16 -3 0 0 10 7 23 7 12 12 24 13 27 1 17
39 90 47 90 5 0 7 4 4 9 -4 5 16 56 42 113 27 56 95 207 152 333 57 127 119
264 137 305 19 41 46 100 59 130 14 30 29 63 34 72 6 10 10 25 10 33 0 8 5 15
10 15 6 0 10 7 10 15 0 9 8 30 17 48 9 18 18 34 18 37 1 3 9 22 18 44 9 21 17
42 17 47 0 5 5 9 10 9 6 0 10 6 10 13 0 6 13 40 30 75 16 34 30 66 31 70 1 4
12 27 23 52 11 25 20 47 21 50 0 3 13 29 27 58 15 28 25 52 23 52 -2 0 7 21
20 48 13 26 23 49 23 52 0 3 12 28 25 55 14 28 25 52 25 55 -1 3 5 16 12 30 8
14 15 27 15 30 0 3 9 19 18 37 9 18 17 38 17 46 0 8 7 20 15 27 8 6 14 15 13
18 -1 4 8 29 20 56 12 27 22 52 22 57 0 5 4 9 9 9 5 0 12 12 16 27 3 15 18 52
32 83 14 30 37 80 50 110 40 89 46 102 172 381 66 147 122 273 123 280 2 8 6
16 9 19 6 5 64 130 64 140 1 3 6 15 13 26 6 12 8 24 5 28 -3 3 -1 6 5 6 9 0
21 22 27 50 1 3 14 32 29 64 16 33 29 65 30 70 1 6 8 22 16 36 8 14 13 28 12
32 -1 3 5 11 13 18 7 6 11 18 8 26 -3 8 -1 14 5 14 8 0 16 16 20 43 1 4 8 15
17 23 8 9 13 19 10 24 -3 5 -1 11 5 15 6 4 8 11 5 16 -4 5 -1 9 5 9 6 0 8 5 5
10 -3 6 -1 10 5 10 6 0 8 5 5 10 -3 6 -1 10 5 10 6 0 8 5 5 10 -3 6 -2 10 2
10 5 0 10 10 10 22 1 13 7 24 13 26 5 2 10 7 10 12 0 5 5 21 12 37 6 15 11 31
10 36 -1 4 3 7 9 7 5 0 7 5 4 10 -3 6 -1 10 5 10 6 0 8 5 5 10 -3 6 -1 10 4
10 6 0 10 3 9 8 -1 8 15 49 43 108 10 22 19 46 19 52 0 7 5 12 11 12 5 0 8 4
4 9 -3 5 2 16 10 25 9 8 16 18 16 21 -1 19 40 115 49 115 4 0 7 6 7 14 0 13
145 342 234 531 69 148 70 149 58 184 -12 33 -12 33 -73 30 -33 -2 -65 -6 -71
-10 -5 -4 -23 -10 -40 -13 -16 -3 -39 -8 -50 -11 -11 -2 -166 -38 -345 -80
-179 -42 -338 -79 -355 -82 -16 -3 -32 -8 -35 -11 -3 -4 -14 -8 -25 -8 -11 -1
-31 -4 -45 -7 -28 -7 -65 -15 -95 -21 -11 -2 -40 -9 -65 -16 -25 -7 -54 -14
-65 -15 -11 -1 -20 -3 -20 -5 0 -1 -9 -3 -20 -5 -11 -2 -31 -6 -45 -10 -14 -3
-29 -7 -35 -8 -5 -2 -14 -5 -20 -8 -5 -4 -18 -5 -27 -4 -10 2 -18 -1 -18 -6 0
-4 -6 -6 -14 -3 -8 3 -17 1 -20 -4 -3 -5 -17 -8 -31 -7 -14 2 -25 -1 -25 -5 0
-5 -8 -9 -17 -8 -10 0 -29 -3 -43 -7 -14 -4 -35 -7 -47 -8 -13 -1 -23 -5 -23
-10 0 -5 -6 -7 -14 -4 -8 3 -17 3 -20 -1 -8 -7 -33 -13 -68 -15 -16 -1 -28 -6
-28 -10 0 -5 -9 -5 -20 -2 -11 3 -20 2 -20 -3 0 -9 -2 -9 -55 -14 -16 -2 -32
-6 -36 -10 -3 -4 -18 -9 -35 -12 -16 -2 -37 -7 -46 -11 -9 -4 -21 -4 -27 -1
-5 4 -13 2 -16 -4 -4 -6 -15 -8 -26 -5 -11 4 -19 2 -19 -5 0 -6 -8 -10 -17 -9
-10 1 -25 -1 -33 -4 -8 -4 -141 -36 -295 -71 -408 -94 -458 -106 -475 -113 -8
-3 -30 -7 -48 -9 -18 -2 -38 -7 -45 -11 -6 -4 -19 -6 -29 -5 -9 2 -19 -2 -22
-7 -4 -6 -13 -8 -21 -4 -8 3 -15 1 -15 -3 0 -5 -10 -9 -22 -10 -24 -1 -109
-19 -115 -24 -2 -2 -11 -3 -20 -4 -28 -3 -87 -18 -98 -24 -5 -4 -19 -7 -30 -8
-11 -1 -31 -5 -45 -9 -14 -3 -32 -8 -40 -10 -8 -2 -15 -4 -15 -5 0 -1 -9 -3
-20 -5 -19 -2 -43 -7 -95 -20 -14 -3 -34 -8 -45 -10 -79 -18 -100 -23 -100
-26 0 -1 -9 -3 -20 -5 -11 -2 -38 -7 -60 -13 -55 -14 -107 -24 -127 -25 -10 0
-18 -3 -18 -7 0 -6 -100 -30 -145 -34 -11 -1 -27 -5 -35 -9 -8 -3 -134 -33
-280 -66 -146 -34 -278 -65 -295 -69 -16 -5 -57 -14 -90 -22 -33 -7 -65 -16
-71 -21 -6 -4 -13 -5 -17 -2 -3 3 -23 0 -44 -7 -21 -7 -41 -12 -44 -11 -4 0
-22 -3 -40 -9 -19 -5 -50 -12 -69 -15 -19 -3 -40 -10 -46 -15 -6 -5 -13 -7
-15 -5 -3 4 -64 -9 -141 -29 -25 -7 -60 -15 -83 -20 -11 -3 -31 -7 -45 -10
-14 -4 -36 -8 -50 -11 -14 -3 -32 -7 -40 -9 -8 -2 -15 -4 -15 -5 0 -3 -78 -20
-110 -23 -11 -1 -22 -5 -25 -8 -3 -4 -21 -9 -40 -12 -19 -3 -46 -8 -60 -12
-14 -3 -36 -8 -50 -11 -14 -3 -34 -8 -45 -11 -11 -4 -24 -8 -30 -9 -5 -1 -23
-5 -40 -9 -16 -4 -37 -8 -45 -9 -8 -2 -22 -6 -31 -10 -9 -4 -20 -6 -25 -5 -5
1 -16 -1 -24 -4 -8 -3 -105 -27 -215 -52 -618 -144 -711 -166 -725 -172 -8 -3
-19 -5 -23 -4 -4 1 -56 -10 -115 -24 -145 -35 -170 -41 -174 -45 -4 -3 -51
-10 -70 -11 -10 0 -20 -4 -23 -9 -3 -5 -12 -7 -20 -3 -8 3 -15 0 -15 -7 0 -7
-8 -9 -19 -5 -11 3 -22 2 -25 -4 -3 -5 -14 -7 -24 -5 -19 5 -18 -6 -7 304 10
269 14 404 18 540 8 275 17 541 26 765 5 127 9 264 9 306 -1 42 1 80 4 85 3 5
5 65 4 132 -1 68 2 126 5 128 3 2 5 56 4 121 -1 65 1 122 3 127 3 5 7 82 9
170 7 307 8 341 15 352 4 6 -2 24 -12 42 -16 26 -24 30 -47 26 -15 -3 -30 -10
-32 -15 -3 -10 -9 -16 -48 -47 -12 -9 -32 -25 -45 -35 -62 -50 -330 -247 -335
-247 -3 0 -11 -6 -17 -14 -6 -7 -74 -60 -151 -116 -77 -57 -142 -106 -145
-109 -3 -3 -32 -26 -65 -51 -33 -25 -65 -49 -71 -55 -6 -5 -22 -17 -34 -25
-12 -8 -30 -22 -40 -30 -10 -8 -28 -22 -40 -30 -12 -8 -32 -24 -45 -35 -47
-41 -66 -55 -75 -55 -6 0 -10 -4 -10 -8 0 -4 -25 -25 -56 -47 -30 -22 -67 -50
-82 -63 -46 -38 -51 -42 -61 -42 -5 0 -11 -4 -13 -9 -4 -12 -146 -121 -157
-121 -5 0 -11 -4 -13 -9 -3 -8 -78 -67 -253 -200 -33 -25 -62 -48 -65 -51 -3
-3 -24 -18 -47 -34 -24 -16 -43 -33 -43 -37 0 -5 -5 -9 -11 -9 -7 0 -21 -11
-33 -23 l-22 -24 -19 65 c-11 35 -23 66 -27 68 -5 3 -8 14 -8 25 0 10 -4 19
-8 19 -4 0 -8 8 -9 18 -2 25 -35 116 -44 120 -4 2 -5 10 -2 18 3 8 0 14 -7 14
-7 0 -10 7 -7 15 4 8 2 17 -4 20 -5 4 -7 10 -4 15 3 5 1 11 -4 14 -5 3 -12 22
-15 41 -4 19 -12 35 -18 35 -6 0 -9 3 -5 6 3 3 -8 43 -24 87 -17 45 -32 89
-34 97 -2 8 -13 39 -24 68 -12 28 -18 52 -13 52 4 0 1 4 -5 8 -7 4 -14 17 -16
27 -1 11 -5 25 -8 30 -5 8 -30 76 -34 95 -1 3 -4 12 -7 20 -24 64 -39 110 -39
115 1 3 -5 18 -13 34 -9 16 -12 31 -9 35 4 3 0 6 -7 6 -7 0 -11 3 -8 6 3 3 -3
29 -14 57 -11 29 -20 58 -21 65 0 6 -4 12 -9 12 -5 0 -8 6 -7 13 1 6 -1 21 -6
32 -45 114 -53 140 -49 147 3 4 0 8 -5 8 -6 0 -10 3 -9 8 0 4 -2 16 -6 27 -4
11 -12 34 -18 50 -5 17 -14 39 -19 50 -4 11 -21 58 -37 105 -78 226 -233 664
-240 674 -3 6 -7 16 -8 22 -3 21 -47 139 -53 144 -3 3 -7 14 -9 25 -2 11 -6
27 -9 35 -3 8 -8 24 -10 35 -2 10 -7 22 -11 25 -4 3 -9 16 -11 30 -1 14 -8 28
-15 32 -6 4 -7 8 -2 8 5 0 3 7 -4 15 -7 8 -9 15 -5 15 4 0 2 6 -4 13 -6 8 -8
17 -4 20 3 4 1 7 -5 7 -6 0 -9 7 -6 15 4 8 1 15 -5 15 -6 0 -8 7 -5 15 4 8 2
15 -3 15 -5 0 -10 7 -11 15 -1 8 -3 22 -4 30 -1 8 -5 15 -10 15 -5 0 -6 5 -3
10 3 6 1 10 -4 10 -6 0 -11 11 -11 24 0 14 -5 28 -11 31 -6 4 -8 13 -5 21 3 7
1 16 -5 19 -5 4 -7 11 -4 16 4 5 1 9 -5 9 -7 0 -10 6 -7 14 3 8 -1 20 -8 26
-8 7 -13 16 -10 20 3 5 0 12 -6 15 -5 4 -8 13 -5 21 3 8 1 14 -5 14 -6 0 -9 7
-5 15 3 8 1 15 -5 15 -6 0 -9 7 -5 15 3 8 1 15 -5 15 -6 0 -9 7 -5 15 3 8 1
15 -5 15 -6 0 -9 6 -6 14 3 8 1 16 -4 18 -6 2 -12 12 -14 23 -2 11 -4 21 -5
23 -2 1 -3 5 -5 10 -1 4 -5 14 -8 22 -19 44 -45 130 -39 130 4 0 2 4 -4 8 -13
9 -55 132 -49 142 3 5 1 10 -4 12 -6 1 -55 133 -110 291 -56 159 -104 294
-108 300 -4 7 -9 19 -10 28 -1 9 -8 29 -14 45 -7 16 -13 35 -15 42 -1 8 -6 21
-10 30 -4 9 -8 24 -10 32 -2 8 -8 16 -14 18 -5 2 -8 8 -5 13 3 4 -1 22 -10 39
-8 16 -13 30 -9 30 4 0 1 6 -5 13 -6 8 -8 17 -4 20 3 4 2 7 -3 7 -5 0 -10 10
-11 22 -1 11 -6 24 -10 27 -8 6 -11 14 -18 53 -2 9 -8 25 -14 36 -6 11 -7 22
-4 26 3 3 1 6 -6 6 -7 0 -11 6 -8 14 3 7 -1 23 -8 34 -8 10 -11 22 -8 26 3 3
1 6 -6 6 -8 0 -11 7 -7 15 3 8 1 15 -4 15 -5 0 -7 7 -4 15 4 8 1 15 -6 15 -7
0 -10 7 -6 15 3 8 0 15 -6 15 -6 0 -8 3 -5 7 4 3 2 12 -4 20 -6 7 -8 13 -4 13
4 0 2 7 -5 15 -7 8 -9 15 -5 15 4 0 0 10 -8 23 -8 13 -17 34 -19 48 -1 13 -6
26 -10 29 -4 3 -10 17 -12 30 -2 14 -5 26 -7 28 -1 1 -2 5 -3 10 -1 4 -7 16
-13 27 -6 11 -11 23 -12 28 -2 16 -6 28 -19 60 -7 16 -10 32 -7 37 3 5 1 10
-5 12 -5 1 -11 12 -13 23 -1 11 -6 25 -10 31 -4 7 -37 97 -73 200 -115 327
-180 513 -248 702 -36 100 -66 189 -66 197 0 8 -4 15 -8 15 -5 0 -9 6 -9 13
-1 10 -26 84 -50 147 -3 8 -8 24 -10 35 -2 11 -8 22 -13 23 -6 2 -7 8 -4 13 8
14 -21 55 -45 62 -11 3 -27 0 -35 -7z"/>
</g>
</svg>
